# xmcd
# 
# Track frame offsets:
#     150
#     17565
#     35733
#     54068
#     70080
#     90655
#     109725
#     131030
#     153195
#     167320
#     182428
#     206898
#     225920
#     245605
#     267265
#     281910
#     299763
#     317763
#     335125
# 
# Disc length: 4631
# 
# Revision: 32
# Processed by: cddbd v1.5.2PL0 Copyright (c) Steve Scherf et al.
# Submitted via: BonkEnc v1.0.15
# 
DISCID=10121513
DTITLE=ABBA - ABBA Gold - Greatest Hits
DYEAR=1997
DGENRE=Pop
TTITLE0=Dancing Queen
TTITLE1=Knowing Me, Knowing You
TTITLE2=Take A Chance On Me
TTITLE3=Mamma Mia
TTITLE4=Lay All Your Love On Me
TTITLE5=Super Trouper
TTITLE6=I Have A Dream
TTITLE7=The Winner Takes It All
TTITLE8=Money, Money, Money
TTITLE9=S.O.S.
TTITLE10=Chiquitita
TTITLE11=Fernando
TTITLE12=Voulez Vous
TTITLE13=Gimme! Gimme! Gimme!  (A Man After Midnight)
TTITLE14=Does Your Mother Know
TTITLE15=One Of Us
TTITLE16=The Name Of The Game
TTITLE17=Thank You For The Music
TTITLE18=Waterloo
EXTD=Provided by BF_CDLibrary YEAR: 1992
EXTT0=
EXTT1=
EXTT2=
EXTT3=
EXTT4=
EXTT5=
EXTT6=
EXTT7=
EXTT8=
EXTT9=
EXTT10=
EXTT11=
EXTT12=
EXTT13=
EXTT14=
EXTT15=
EXTT16=
EXTT17=
EXTT18=
PLAYORDER=
